<?xml version="1.0" standalone="no"?>
<!DOCTYPE svg PUBLIC "-//W3C//DTD SVG 20010904//EN"
 "http://www.w3.org/TR/2001/REC-SVG-20010904/DTD/svg10.dtd">
<svg version="1.0" xmlns="http://www.w3.org/2000/svg"
 width="333.000000pt" height="333.000000pt" viewBox="0 0 333.000000 333.000000"
 preserveAspectRatio="xMidYMid meet">
<metadata>
Created by potrace 1.11, written by Peter Selinger 2001-2013
</metadata>
<g transform="translate(0.000000,333.000000) scale(0.100000,-0.100000)"
fill="#000000" stroke="none">
<path d="M1264 2619 c-45 -13 -69 -54 -65 -110 2 -24 45 -64 107 -99 56 -31
65 -48 38 -74 -19 -20 -23 -20 -68 -1 -35 15 -39 14 -66 -5 -17 -12 -30 -24
-30 -26 0 -8 81 -42 112 -48 39 -7 96 12 124 39 18 18 24 35 24 68 0 54 -20
76 -100 117 -40 20 -60 36 -60 48 0 39 27 44 106 18 16 -5 23 0 32 19 18 38
15 43 -25 54 -45 13 -86 13 -129 0z"/>
<path d="M1489 2613 c-6 -85 -3 -292 5 -308 13 -27 37 -44 62 -45 19 0 21 5
19 63 -1 34 0 67 2 74 3 7 25 10 60 9 47 -2 56 0 62 18 17 43 3 55 -55 51 -56
-4 -73 7 -69 45 1 8 3 21 3 28 2 8 23 12 70 12 l67 0 0 33 0 32 -112 3 c-102
2 -113 1 -114 -15z"/>
<path d="M1821 2608 c-99 -253 -131 -339 -131 -346 0 -7 33 -9 76 -3 6 0 17
19 24 41 l13 40 74 0 c46 0 73 -4 73 -11 0 -6 7 -25 15 -43 13 -28 20 -32 55
-31 22 0 40 3 40 7 0 3 -31 87 -69 185 l-69 178 -46 3 c-40 3 -47 0 -55 -20z
m78 -130 c12 -34 21 -66 21 -70 0 -4 -20 -8 -45 -8 -25 0 -45 4 -45 8 0 11 41
132 45 132 2 0 13 -28 24 -62z"/>
<path d="M2448 2139 c-183 -29 -319 -211 -297 -400 27 -242 294 -390 517 -287
71 33 154 121 182 193 36 92 33 202 -8 286 -36 74 -51 93 -114 141 -78 60
-178 83 -280 67z m209 -82 c52 -28 112 -93 140 -153 69 -151 0 -329 -157 -407
-69 -34 -186 -31 -262 6 -113 55 -172 152 -172 282 -1 68 3 88 26 130 53 99
116 148 221 169 68 14 145 4 204 -27z"/>
<path d="M2431 2049 c-52 -15 -117 -64 -150 -112 -101 -148 -35 -353 136 -417
229 -86 451 153 349 374 -58 127 -202 194 -335 155z m192 -72 c54 -32 80 -63
102 -121 23 -59 15 -130 -20 -191 -114 -194 -415 -112 -418 115 -2 169 190
282 336 197z"/>
<path d="M2440 1964 c-138 -58 -167 -239 -52 -333 90 -75 223 -55 289 43 23
34 27 52 28 108 0 58 -4 72 -30 109 -53 74 -155 106 -235 73z m149 -63 c46
-32 65 -68 65 -119 0 -109 -109 -175 -207 -127 -68 33 -96 125 -60 195 36 70
141 96 202 51z"/>
<path d="M705 2126 c-109 -34 -181 -96 -229 -196 -27 -57 -31 -75 -31 -150 0
-76 4 -93 33 -152 64 -131 178 -201 327 -201 69 -1 89 4 146 31 157 75 238
244 195 409 -28 111 -90 186 -196 236 -74 35 -175 45 -245 23z m201 -58 c89
-38 164 -116 186 -193 57 -204 -86 -398 -292 -397 -180 1 -316 147 -304 326 7
96 52 174 133 230 75 52 200 68 277 34z"/>
<path d="M714 2042 c-151 -53 -229 -222 -168 -367 23 -55 88 -120 146 -145
248 -106 486 180 335 403 -70 103 -200 148 -313 109z m193 -65 c68 -36 114
-115 114 -196 1 -89 -45 -160 -129 -198 -184 -85 -375 97 -297 283 50 121 195
172 312 111z"/>
<path d="M724 1958 c-106 -51 -147 -165 -95 -266 34 -66 95 -102 173 -102 127
0 215 117 183 244 -28 109 -161 173 -261 124z m151 -58 c59 -37 81 -118 50
-184 -19 -39 -80 -76 -125 -76 -45 0 -106 37 -125 76 -46 97 19 204 124 204
26 0 56 -8 76 -20z"/>
<path d="M1189 2136 c-2 -2 -2 -37 1 -77 l5 -73 70 0 70 -1 1 -220 c1 -189 3
-225 18 -257 19 -39 61 -71 109 -83 l27 -7 0 286 0 287 58 -2 c96 -2 89 -8 91
76 l1 75 -223 0 c-123 0 -226 -2 -228 -4z"/>
<path d="M1669 2123 c-4 -73 -3 -116 2 -125 4 -6 37 -11 75 -12 l69 -1 0 -225
c1 -204 3 -228 21 -258 21 -37 65 -68 107 -76 l27 -5 0 284 0 284 65 0 c35 -1
69 2 75 6 6 4 9 34 8 73 l-3 67 -222 3 c-207 2 -223 1 -224 -15z"/>
<path d="M3033 1815 c-18 -19 -33 -40 -33 -48 0 -7 16 -28 35 -47 19 -19 35
-39 35 -44 -1 -18 -247 -276 -393 -412 -241 -225 -585 -394 -857 -422 -319
-32 -603 35 -903 211 -196 116 -323 226 -532 462 -38 43 -85 95 -102 114 l-33
36 40 40 c22 23 40 45 40 51 0 13 -73 84 -86 84 -12 0 -244 -228 -244 -240 0
-13 50 -69 71 -80 15 -8 26 -4 57 25 l40 35 48 -57 c93 -111 212 -241 289
-317 257 -254 614 -432 952 -477 142 -18 402 -7 533 24 289 69 548 208 755
406 88 84 294 305 378 403 l31 38 42 -41 42 -41 41 37 c22 21 41 45 41 54 0
21 -220 241 -240 240 -8 0 -30 -16 -47 -34z"/>
</g>
</svg>
